<svg width="24" height="21" viewBox="0 0 24 21" fill="none" xmlns="http://www.w3.org/2000/svg">
<g id="logos:google-drive" clip-path="url(#clip0_188_8)">
<path id="Vector" d="M2.51135 17.6209L3.49738 19.3239C3.70227 19.6825 3.99676 19.9643 4.34253 20.1692C5.33286 18.912 6.02224 17.9474 6.41065 17.2751C6.80483 16.5929 7.28928 15.5258 7.86401 14.0738C6.31502 13.8699 5.14122 13.7679 4.34262 13.7679C3.5761 13.7679 2.40224 13.8699 0.821045 14.0738C0.821045 14.4707 0.92349 14.8677 1.12838 15.2263L2.51135 17.6209Z" fill="#0066DA"/>
<path id="Vector_2" d="M19.6578 20.1692C20.0037 19.9643 20.2982 19.6825 20.503 19.324L20.9128 18.6197L22.8721 15.2263C23.0731 14.8755 23.179 14.4782 23.1793 14.0738C21.5889 13.8699 20.4172 13.7679 19.6643 13.7679C18.855 13.7679 17.6833 13.8699 16.1492 14.0738C16.7171 15.5338 17.1952 16.6009 17.5834 17.2751C17.9749 17.9553 18.6664 18.92 19.6578 20.1692Z" fill="#EA4335"/>
<path id="Vector_3" d="M12.0001 6.90271C13.146 5.51883 13.9356 4.45173 14.3691 3.7014C14.7182 3.0972 15.1024 2.13252 15.5216 0.807336C15.1758 0.602445 14.7789 0.5 14.3691 0.5H9.63113C9.22135 0.5 8.82449 0.615284 8.47864 0.807336C9.01197 2.32716 9.46449 3.40879 9.83619 4.05223C10.247 4.76332 10.9683 5.71348 12.0001 6.90271Z" fill="#00832D"/>
<path id="Vector_4" d="M16.1364 14.0738H7.86405L4.34265 20.1692C4.68833 20.3741 5.08527 20.4765 5.49505 20.4765H18.5054C18.9151 20.4765 19.3122 20.3612 19.6578 20.1691L16.1364 14.0738Z" fill="#2684FC"/>
<path id="Vector_5" d="M12.0002 6.90272L8.47877 0.807434C8.13292 1.01232 7.83842 1.29398 7.63353 1.65259L1.12838 12.9213C0.927268 13.2721 0.821323 13.6694 0.821045 14.0738H7.86401L12.0002 6.90272Z" fill="#00AC47"/>
<path id="Vector_6" d="M19.6195 7.28691L16.3668 1.6525C16.162 1.29389 15.8674 1.01223 15.5216 0.807343L12.0002 6.90271L16.1363 14.0738H23.1665C23.1665 13.6768 23.0641 13.2799 22.8592 12.9213L19.6195 7.28691Z" fill="#FFBA00"/>
</g>
<defs>
<clipPath id="clip0_188_8">
<rect width="22.36" height="20" fill="white" transform="translate(0.820068 0.5)"/>
</clipPath>
</defs>
</svg>
